<svg xmlns="http://www.w3.org/2000/svg" width="95.607" height="95.611" viewBox="0 0 95.607 95.611">
  <g id="Group_41" data-name="Group 41" transform="translate(-835 -4749)">
    <g id="Group_40" data-name="Group 40" transform="translate(835 4749)">
      <g id="pie-chart">
        <path id="Path_6" data-name="Path 6" d="M50.614,50.6V0A53.811,53.811,0,0,0,.01,50.6Zm-11.2-8.4h-5.6V36.6h5.6ZM22.6,25.4h5.6V31H22.6Zm14-1.16L40.57,28.2,25.406,43.361,21.445,39.4Z" transform="translate(-0.01)" fill="#741763"/>
        <path id="Path_7" data-name="Path 7" d="M125.087,301H91.582a36.472,36.472,0,0,0,33.505,33.505V301Z" transform="translate(-74.483 -244.794)" fill="#741763"/>
        <path id="Path_8" data-name="Path 8" d="M301.01,60v84.4c21.861-1.452,39.4-20.258,39.4-42.481A42.232,42.232,0,0,0,301.01,60Zm16.806,39.4a8.382,8.382,0,0,1,2.8,16.29v6.118h-5.6V115.69a8.39,8.39,0,0,1-5.6-7.887h5.6a2.8,2.8,0,1,0,2.8-2.8,8.382,8.382,0,0,1-2.8-16.29V82.595h5.6v6.118a8.39,8.39,0,0,1,5.6,7.887h-5.6a2.8,2.8,0,1,0-2.8,2.8Z" transform="translate(-244.804 -48.796)" fill="#741763"/>
      </g>
      <rect id="Rectangle_29" data-name="Rectangle 29" width="26" height="52" transform="translate(59.803 27.795)" fill="#741763"/>
    </g>
    <text id="_" data-name="₦" transform="translate(896.803 4814.795)" fill="#fff" font-size="36" font-family="Kanit-SemiBold, Kanit" font-weight="600"><tspan x="0" y="0">₦</tspan></text>
  </g>
</svg>
