<svg id="focus" xmlns="http://www.w3.org/2000/svg" width="79.392" height="79.392" viewBox="0 0 79.392 79.392">
  <path id="Path_278" data-name="Path 278" d="M182.412,165.872a16.54,16.54,0,1,1-16.54-16.54A16.54,16.54,0,0,1,182.412,165.872Zm0,0" transform="translate(-126.176 -126.176)" fill="#741763"/>
  <path id="Path_279" data-name="Path 279" d="M76.084,36.388H72.607A33.132,33.132,0,0,0,43,6.785V3.308a3.308,3.308,0,0,0-6.616,0V6.785a33.132,33.132,0,0,0-29.6,29.6H3.308a3.308,3.308,0,0,0,0,6.616H6.785a33.134,33.134,0,0,0,29.6,29.6v3.477a3.308,3.308,0,0,0,6.616,0V72.607A33.134,33.134,0,0,0,72.607,43h3.477a3.308,3.308,0,0,0,0-6.616ZM42.958,65.939a3.267,3.267,0,0,0-6.524,0A26.488,26.488,0,0,1,13.457,42.961a3.268,3.268,0,0,0,0-6.527A26.488,26.488,0,0,1,36.431,13.457a3.268,3.268,0,0,0,6.527,0A26.488,26.488,0,0,1,65.935,36.431a3.268,3.268,0,0,0,0,6.527A26.5,26.5,0,0,1,42.958,65.939Zm0,0" fill="#741763"/>
</svg>
