<svg xmlns="http://www.w3.org/2000/svg" width="30.198" height="30.198" viewBox="0 0 30.198 30.198">
  <g id="Group_230" data-name="Group 230" transform="translate(0 -395)">
    <g id="money-bag_2_" data-name="money-bag (2)" transform="translate(0 395)">
      <path id="Path_285" data-name="Path 285" d="M153.494,251.106a.886.886,0,0,1-.885-.885.885.885,0,0,0-1.769,0,2.658,2.658,0,0,0,1.779,2.505v.775a.885.885,0,0,0,1.769,0v-.781a2.654,2.654,0,0,0-.894-5.153.885.885,0,1,1,.885-.885.885.885,0,1,0,1.769,0,2.659,2.659,0,0,0-1.76-2.5v-1.3a.885.885,0,1,0-1.769,0v1.293a2.654,2.654,0,0,0,.875,5.159.885.885,0,0,1,0,1.769Zm0,0" transform="translate(-141.943 -227.727)" fill="#fff"/>
      <path id="Path_286" data-name="Path 286" d="M3.606,28.753c1.841.986,4.369,1.445,7.954,1.445a19.537,19.537,0,0,0,6.819-.945,2.649,2.649,0,0,0,2.028.945h7.137a2.652,2.652,0,0,0,1.976-4.424,2.648,2.648,0,0,0,0-3.539,2.648,2.648,0,0,0,0-3.539,2.652,2.652,0,0,0-1.976-4.424H20.407c-.086,0-.171,0-.256.013a12.115,12.115,0,0,0-3.075-2.669,2.651,2.651,0,0,0-.842-4.166L17.71,2.929a.885.885,0,0,0-.841-1.159H14.062a2.654,2.654,0,0,0-5,0H6.252a.885.885,0,0,0-.841,1.159L6.886,7.451a2.651,2.651,0,0,0-.841,4.167A12.62,12.62,0,0,0,0,22.236C0,25.279,1.213,27.472,3.606,28.753Zm24.822-8.287a.886.886,0,0,1-.885.885H20.407a.885.885,0,0,1,0-1.769h7.137A.886.886,0,0,1,28.429,20.466Zm0,3.539a.886.886,0,0,1-.885.885H20.407a.885.885,0,0,1,0-1.769h7.137A.886.886,0,0,1,28.429,24.005Zm-.885,4.424H20.407a.885.885,0,0,1,0-1.769h7.137a.885.885,0,1,1,0,1.769Zm.885-11.5a.886.886,0,0,1-.885.885H20.407a.885.885,0,0,1,0-1.769h7.137A.886.886,0,0,1,28.429,16.927ZM15.074,10.734H8.021a.885.885,0,0,1,0-1.769H15.1a.885.885,0,0,1,0,1.769h-.025Zm-5.283-7.2a.885.885,0,0,0,.885-.885.885.885,0,0,1,1.769,0V4.424a.885.885,0,1,0,1.769,0V3.539h1.435L14.457,7.2H8.663L7.471,3.539ZM8.194,12.5h6.729A10,10,0,0,1,18.5,15.082a2.648,2.648,0,0,0-.071,3.615,2.648,2.648,0,0,0,0,3.539,2.648,2.648,0,0,0,0,3.539,2.644,2.644,0,0,0-.678,1.769c0,.018,0,.036,0,.054a17.88,17.88,0,0,1-6.194.831c-3.283,0-5.545-.393-7.119-1.235-1.823-.976-2.672-2.551-2.672-4.958A10.734,10.734,0,0,1,8.194,12.5Zm0,0" fill="#fff"/>
    </g>
    <rect id="Rectangle_1129" data-name="Rectangle 1129" width="10.121" height="14.169" transform="translate(7.002 408.63)" fill="#741763"/>
    <text id="_" data-name="₦" transform="translate(9.026 417.618)" fill="#fff" font-size="10" font-family="SourceSansPro-Semibold, Source Sans Pro" font-weight="600"><tspan x="0" y="0">₦</tspan></text>
  </g>
</svg>
