<svg xmlns="http://www.w3.org/2000/svg" width="47.573" height="31.16" viewBox="0 0 47.573 31.16">
  <path id="Icon_payment-credit-card" data-name="Icon payment-credit-card" d="M50.525,16.35a2.979,2.979,0,0,1,2.28.988,2.976,2.976,0,0,1,.988,2.28V44.242a3.378,3.378,0,0,1-3.268,3.268H9.489a2.975,2.975,0,0,1-2.28-.988,2.974,2.974,0,0,1-.988-2.28V19.618a2.974,2.974,0,0,1,.988-2.28,2.978,2.978,0,0,1,2.28-.988H50.525ZM9.489,18.934q-.38,0-.456.228a.657.657,0,0,0-.228.456v4.56h42.4v-4.56a.657.657,0,0,0-.228-.456q-.077-.228-.456-.228H9.489ZM50.525,44.926q.38,0,.456-.228a.657.657,0,0,0,.228-.456V31.93H8.8V44.242a.657.657,0,0,0,.228.456q.075.228.456.228ZM11.389,42.341v-2.66h5.244v2.66Zm7.828,0v-2.66h7.752v2.66Z" transform="translate(-6.221 -16.35)" fill="#fff"/>
</svg>
