<svg xmlns="http://www.w3.org/2000/svg" width="188.082" height="154.859" viewBox="0 0 188.082 154.859">
  <g id="races" transform="translate(0 -45.22)">
    <g id="Group_89" data-name="Group 89" transform="translate(74.778 102.893)">
      <g id="Group_88" data-name="Group 88" transform="translate(0 0)">
        <path id="Path_16" data-name="Path 16" d="M260.081,204.723a8.552,8.552,0,0,0-12.095,0L223.6,229.11A16.307,16.307,0,1,0,235.693,241.2l24.387-24.387A8.55,8.55,0,0,0,260.081,204.723Z" transform="translate(-203.561 -202.218)" fill="#a02089"/>
      </g>
    </g>
    <g id="Group_91" data-name="Group 91" transform="translate(0.001 45.22)">
      <g id="Group_90" data-name="Group 90">
        <path id="Path_17" data-name="Path 17" d="M160.562,72.727A94.085,94.085,0,0,0,15.836,191.57a8.553,8.553,0,0,0,14.21-9.521,76.419,76.419,0,0,1-12.463-34.015h8.041a8.552,8.552,0,0,0,0-17.1H17.556A77.012,77.012,0,0,1,33.8,91.331l5.819,5.82A8.552,8.552,0,0,0,51.711,85.056l-5.846-5.845A76.646,76.646,0,0,1,85.848,62.754v8.077a8.552,8.552,0,0,0,17.1,0v-8a76.6,76.6,0,0,1,39.26,16.383l-5.841,5.842a8.553,8.553,0,0,0,12.1,12.094l5.814-5.814a77,77,0,0,1,16.246,39.592h-8.067a8.552,8.552,0,0,0,0,17.1H170.5a76.405,76.405,0,0,1-12.467,34.014,8.552,8.552,0,1,0,14.208,9.523A94.25,94.25,0,0,0,160.562,72.727Z" transform="translate(0 -45.22)" fill="#a02089"/>
      </g>
    </g>
    <g id="Group_93" data-name="Group 93" transform="translate(46.944 182.975)">
      <g id="Group_92" data-name="Group 92">
        <path id="Path_18" data-name="Path 18" d="M213.432,420.217H136.343a8.552,8.552,0,0,0,0,17.1h77.088a8.552,8.552,0,0,0,0-17.1Z" transform="translate(-127.791 -420.217)" fill="#a02089"/>
      </g>
    </g>
  </g>
</svg>
