<svg xmlns="http://www.w3.org/2000/svg" width="30.018" height="30.018" viewBox="0 0 30.018 30.018">
  <g id="user" transform="translate(0)">
    <g id="Group_231" data-name="Group 231" transform="translate(0)">
      <path id="Path_307" data-name="Path 307" d="M25.622,19.4a14.951,14.951,0,0,0-5.7-3.577,8.677,8.677,0,1,0-9.819,0A15.033,15.033,0,0,0,0,30.018H2.345a12.664,12.664,0,1,1,25.328,0h2.345A14.911,14.911,0,0,0,25.622,19.4Zm-10.613-4.4a6.332,6.332,0,1,1,6.332-6.332A6.339,6.339,0,0,1,15.009,15.009Z" transform="translate(0)" fill="#fff"/>
    </g>
  </g>
</svg>
