<svg id="accept_1_" data-name="accept (1)" xmlns="http://www.w3.org/2000/svg" width="154.535" height="161.297" viewBox="0 0 154.535 161.297">
  <path id="Path_30" data-name="Path 30" d="M94.686,98.637h-28.2a4.726,4.726,0,1,0,0,9.451h28.2a4.726,4.726,0,0,0,0-9.451Zm0,0" transform="translate(-42.302 -67.563)" fill="#a02089"/>
  <path id="Path_31" data-name="Path 31" d="M94.686,158.641h-28.2a4.726,4.726,0,1,0,0,9.451h28.2a4.726,4.726,0,0,0,0-9.451Zm0,0" transform="translate(-42.302 -108.663)" fill="#a02089"/>
  <path id="Path_32" data-name="Path 32" d="M94.686,218.645h-28.2a4.726,4.726,0,1,0,0,9.451h28.2a4.726,4.726,0,0,0,0-9.451Zm0,0" transform="translate(-42.302 -149.764)" fill="#a02089"/>
  <path id="Path_33" data-name="Path 33" d="M94.686,278.648h-28.2a4.726,4.726,0,1,0,0,9.451h28.2a4.726,4.726,0,0,0,0-9.451Zm0,0" transform="translate(-42.302 -190.865)" fill="#a02089"/>
  <path id="Path_34" data-name="Path 34" d="M94.686,339.656h-28.2a4.725,4.725,0,1,0,0,9.451h28.2a4.725,4.725,0,1,0,0-9.451Zm0,0" transform="translate(-42.302 -232.653)" fill="#a02089"/>
  <path id="Path_35" data-name="Path 35" d="M206.382,108.088h28.2a4.726,4.726,0,1,0,0-9.451h-28.2a4.726,4.726,0,1,0,0,9.451Zm0,0" transform="translate(-138.128 -67.563)" fill="#a02089"/>
  <path id="Path_36" data-name="Path 36" d="M206.382,168.092h28.2a4.726,4.726,0,1,0,0-9.451h-28.2a4.726,4.726,0,1,0,0,9.451Zm0,0" transform="translate(-138.128 -108.663)" fill="#a02089"/>
  <path id="Path_37" data-name="Path 37" d="M224.691,223.37a4.725,4.725,0,0,0-4.726-4.726H206.382a4.726,4.726,0,1,0,0,9.451h13.583A4.725,4.725,0,0,0,224.691,223.37Zm0,0" transform="translate(-138.128 -149.764)" fill="#a02089"/>
  <path id="Path_38" data-name="Path 38" d="M343.279,343.728a4.726,4.726,0,0,0-6.643.729l-12.171,15.173-7.535-5.459a4.725,4.725,0,1,0-5.545,7.653l11.178,8.1a4.723,4.723,0,0,0,6.458-.87l14.987-18.682A4.725,4.725,0,0,0,343.279,343.728Zm0,0" transform="translate(-211.951 -234.73)" fill="#a02089"/>
  <path id="Path_39" data-name="Path 39" d="M143.273,94.492a38.97,38.97,0,0,0-22.634-11.374V19.031A19.053,19.053,0,0,0,101.607,0H19.032A19.054,19.054,0,0,0,0,19.031V128.5a19.054,19.054,0,0,0,19.031,19.032H85.446A38.9,38.9,0,0,0,115.29,161.3a39.276,39.276,0,0,0,27.983-66.806ZM9.451,128.5V19.031a9.592,9.592,0,0,1,9.581-9.58h82.575a9.591,9.591,0,0,1,9.58,9.58V82.967a39.3,39.3,0,0,0-31.724,55.11H19.032A9.592,9.592,0,0,1,9.451,128.5ZM115.29,151.846a29.821,29.821,0,0,1,0-59.642c.155,0,.311,0,.466,0h.073a29.821,29.821,0,0,1-.539,59.636Zm0,0" fill="#a02089"/>
</svg>
