<svg xmlns="http://www.w3.org/2000/svg" width="97.146" height="85" viewBox="0 0 97.146 85">
  <g id="credit-card_1_" data-name="credit-card (1)" transform="translate(0 -32.008)">
    <g id="Group_33" data-name="Group 33" transform="translate(0 50.22)">
      <g id="Group_32" data-name="Group 32">
        <path id="Path_9" data-name="Path 9" d="M42.5,134.064v-6.072H6.072A6.082,6.082,0,0,0,0,134.064v12.143H43.782A54.362,54.362,0,0,1,42.5,134.064Z" transform="translate(0 -127.992)" fill="#741763"/>
      </g>
    </g>
    <g id="Group_35" data-name="Group 35" transform="translate(0 80.578)">
      <g id="Group_34" data-name="Group 34">
        <path id="Path_10" data-name="Path 10" d="M96.9,287.992C92.756,294.373,86.442,299.8,77.395,305a9.123,9.123,0,0,1-9.053.012C59.3,299.8,52.981,294.367,48.834,287.992H0V318.35a6.078,6.078,0,0,0,6.072,6.072h85a6.074,6.074,0,0,0,6.072-6.072V287.992ZM27.322,306.207H15.179a3.036,3.036,0,1,1,0-6.072H27.322a3.036,3.036,0,1,1,0,6.072Z" transform="translate(0 -287.992)" fill="#741763"/>
      </g>
    </g>
    <g id="Group_37" data-name="Group 37" transform="translate(48.573 32.008)">
      <g id="Group_36" data-name="Group 36">
        <path id="Path_11" data-name="Path 11" d="M302.733,41.361l-21.251-9.107a3.047,3.047,0,0,0-2.4,0l-21.251,9.107A3.028,3.028,0,0,0,256,44.148V56.291c0,16.7,6.175,26.466,22.775,36.029a3.052,3.052,0,0,0,3.024,0c16.6-9.539,22.775-19.3,22.775-36.029V44.148A3.024,3.024,0,0,0,302.733,41.361ZM291.768,55.156,279.625,70.335a3.069,3.069,0,0,1-2.374,1.135h-.128a3.047,3.047,0,0,1-2.4-1.348l-6.072-9.107a3.034,3.034,0,1,1,5.052-3.364l3.77,5.653,9.545-11.937a3.037,3.037,0,0,1,4.748,3.789Z" transform="translate(-256 -32.008)" fill="#741763"/>
      </g>
    </g>
  </g>
</svg>
