<svg id="flag" xmlns="http://www.w3.org/2000/svg" width="79.904" height="79.904" viewBox="0 0 79.904 79.904">
  <g id="Group_166" data-name="Group 166">
    <path id="Path_277" data-name="Path 277" d="M78.4,76.6A36.125,36.125,0,0,0,63.449,60.534,46.147,46.147,0,0,0,42.256,54.4V24.561c3.422-.894,7-.158,10.754.615a41.383,41.383,0,0,0,8.329,1.13,17.1,17.1,0,0,0,6.624-1.259l1.453-.6V3.851L66.168,5.188c-3.86,1.589-7.915.755-12.207-.129-3.788-.78-7.679-1.579-11.7-.829V0h-4.7V54.407a46.133,46.133,0,0,0-21.1,6.126A36.125,36.125,0,0,0,1.5,76.6L0,79.9H79.9ZM42.256,9.032c3.422-.894,7-.158,10.754.615,3.789.78,7.679,1.581,11.705.83V21.2c-3.422.894-7,.158-10.754-.615-3.789-.78-7.679-1.579-11.7-.829ZM7.569,75.219A32.627,32.627,0,0,1,18.836,64.574a41.781,41.781,0,0,1,21.116-5.539,41.78,41.78,0,0,1,21.116,5.539A32.627,32.627,0,0,1,72.335,75.219Z" fill="#741763"/>
  </g>
</svg>
