<svg xmlns="http://www.w3.org/2000/svg" width="160.317" height="160.317" viewBox="0 0 160.317 160.317">
  <g id="Group_110" data-name="Group 110" transform="translate(-1541.841 -2109.841)">
    <g id="money-bag_1_" data-name="money-bag (1)" transform="translate(1541.841 2109.841)">
      <path id="Path_40" data-name="Path 40" d="M164.09,260.787a4.7,4.7,0,0,1,4.7,4.7,4.7,4.7,0,0,0,9.394,0,14.112,14.112,0,0,0-9.394-13.283v-5.5a4.7,4.7,0,1,0-9.394,0v5.5a14.089,14.089,0,0,0,4.7,27.373,4.7,4.7,0,1,1-4.7,4.7,4.7,4.7,0,1,0-9.394,0,14.112,14.112,0,0,0,9.394,13.283v5.5a4.7,4.7,0,1,0,9.394,0v-5.5a14.089,14.089,0,0,0-4.7-27.373,4.7,4.7,0,1,1,0-9.394Z" transform="translate(-103.032 -166.225)" fill="#a02089"/>
      <path id="Path_41" data-name="Path 41" d="M155.62,113.349h-36.63c-5.158-17.623-15.8-28.211-25.252-37.621-9.244-9.2-16.753-16.682-18.295-28.761h4.4a4.7,4.7,0,0,0,0-9.394H75.58C78.239,22.586,92.325,8.256,92.56,8.018h0l0,0A4.7,4.7,0,0,0,89.237,0C80.771,0,76.209,3.042,72.544,5.486c-3.275,2.183-5.862,3.908-11.485,3.908s-8.21-1.725-11.485-3.908C45.907,3.042,41.345,0,32.878,0a4.7,4.7,0,0,0-3.324,8.015l0,0h0c.235.237,14.321,14.568,16.98,29.556H42.271a4.7,4.7,0,1,0,0,9.394h4.4c-1.54,12.051-9.033,19.5-18.255,28.66C22.04,81.962,14.812,89.141,9.338,98.692,3.055,109.658,0,122.134,0,136.833c0,.31,0,.619.007.925C.2,150.2,10.742,160.317,23.5,160.317H155.621a4.7,4.7,0,0,0,4.7-4.7V118.046A4.7,4.7,0,0,0,155.62,113.349Zm-4.7,18.787H103.33v-9.394h47.594ZM61.058,18.787a25.742,25.742,0,0,0,14.149-3.846c-4.067,6.322-7.994,14.282-9.127,22.633H56.035c-1.133-8.351-5.059-16.312-9.127-22.633a25.746,25.746,0,0,0,14.15,3.846ZM9.4,137.609q-.007-.387-.006-.776c0-29.073,13.036-42.019,25.643-54.54,9.58-9.514,19.452-19.328,21.085-35.326H66c1.634,16.02,11.522,25.87,21.117,35.419,8.511,8.47,17.275,17.2,22.018,30.963h-10.5a4.7,4.7,0,0,0-4.7,4.7v32.878H23.5C15.841,150.924,9.515,144.952,9.4,137.609Zm141.524,13.314H103.33V141.53h47.594Z" transform="translate(0)" fill="#a02089"/>
    </g>
    <rect id="Rectangle_45" data-name="Rectangle 45" width="39" height="68" transform="translate(1583 2185)" fill="#f5f5f5"/>
    <text id="_" data-name="₦" transform="translate(1583 2239)" fill="#a02089" font-size="57" font-family="Kanit-Bold, Kanit" font-weight="700"><tspan x="0" y="0">₦</tspan></text>
  </g>
</svg>
