<svg xmlns="http://www.w3.org/2000/svg" width="49.793" height="99.985" viewBox="0 0 49.793 99.985">
  <g id="Group_39" data-name="Group 39" transform="translate(-1067.592 -3586.008)">
    <g id="Group_38" data-name="Group 38" transform="translate(1067.592 3586.008)">
      <g id="growth" transform="translate(0 0)">
        <g id="Group_31" data-name="Group 31" transform="translate(0 0)">
          <path id="Path_5" data-name="Path 5" d="M156.353,47.21V40.981c1.027.141,2.489.313,4.083.411q1.267.078,2.388.078c3.175,0,5.492-.468,7.044-1.418,1.918-1.174,3.712-3.722,5.485-7.789a55.149,55.149,0,0,0,1.968-5.255l.978-3.184-3.281-.578a55.138,55.138,0,0,0-5.575-.638c-4.429-.271-7.515.167-9.432,1.341a11.688,11.688,0,0,0-3.659,4.156V18.451c1.027.141,2.49.313,4.083.411q1.267.078,2.388.078c3.175,0,5.492-.468,7.044-1.418,1.918-1.174,3.712-3.722,5.485-7.789a55.083,55.083,0,0,0,1.968-5.255l.978-3.184L175.019.715a55.139,55.139,0,0,0-5.575-.638c-4.429-.272-7.515.167-9.432,1.341s-3.712,3.722-5.485,7.789c-.438,1-.816,1.969-1.121,2.792-.305-.823-.683-1.788-1.121-2.792-1.773-4.068-3.567-6.616-5.485-7.79S141.8-.2,137.368.076a55.155,55.155,0,0,0-5.575.638l-3.281.578.978,3.184a55.173,55.173,0,0,0,1.968,5.255c1.773,4.068,3.567,6.616,5.485,7.789,1.552.95,3.869,1.418,7.044,1.418q1.122,0,2.388-.078c1.6-.1,3.064-.271,4.091-.412v9.667a11.709,11.709,0,0,0-3.667-4.17c-1.918-1.174-5-1.612-9.432-1.341a55.155,55.155,0,0,0-5.575.638l-3.281.578.978,3.184a55.167,55.167,0,0,0,1.968,5.255c1.773,4.068,3.567,6.616,5.485,7.789,1.552.95,3.869,1.418,7.044,1.418q1.122,0,2.388-.078c1.6-.1,3.064-.271,4.091-.412v6.23H128.516l6.057,52.774h37.675L178.3,47.21H156.353Zm-3.376,23.542h.867a6.869,6.869,0,0,1,2.411,13.3v3.969h-5.689V84.053a6.881,6.881,0,0,1-4.458-6.432H151.8a1.182,1.182,0,0,0,1.18,1.18h.867a1.182,1.182,0,0,0,1.18-1.18c0-.651-1.18-1.18-1.18-1.18h-.867a6.869,6.869,0,0,1-2.411-13.3V59.171h5.689V63.14a6.881,6.881,0,0,1,4.458,6.432h-5.689a1.182,1.182,0,0,0-1.18-1.18h-.867a1.18,1.18,0,0,0,0,2.361Z" transform="translate(-128.512 0.001)" fill="#741763"/>
        </g>
      </g>
      <rect id="Rectangle_28" data-name="Rectangle 28" width="29" height="41" transform="translate(10.408 52.992)" fill="#741763"/>
    </g>
    <text id="_" data-name="₦" transform="translate(1082 3669)" fill="#fff" font-size="30" font-family="Kanit-SemiBold, Kanit" font-weight="600"><tspan x="0" y="0">₦</tspan></text>
  </g>
</svg>
