<svg xmlns="http://www.w3.org/2000/svg" width="192.633" height="203.806" viewBox="0 0 192.633 203.806">
  <g id="Layer_2" data-name="Layer 2" transform="matrix(0.966, 0.259, -0.259, 0.966, 43.933, 0)">
    <g id="OBJECTS">
      <rect id="Rectangle_65" data-name="Rectangle 65" width="2.762" height="2.762" fill="#741763"/>
      <rect id="Rectangle_66" data-name="Rectangle 66" width="2.762" height="2.762" transform="translate(0 16.694)" fill="#741763"/>
      <rect id="Rectangle_67" data-name="Rectangle 67" width="2.762" height="2.762" transform="translate(0 33.402)" fill="#741763"/>
      <rect id="Rectangle_68" data-name="Rectangle 68" width="2.762" height="2.762" transform="translate(0 50.096)" fill="#741763"/>
      <rect id="Rectangle_69" data-name="Rectangle 69" width="2.762" height="2.762" transform="translate(0 66.791)" fill="#741763"/>
      <rect id="Rectangle_70" data-name="Rectangle 70" width="2.762" height="2.762" transform="translate(0 83.485)" fill="#741763"/>
      <rect id="Rectangle_71" data-name="Rectangle 71" width="2.762" height="2.762" transform="translate(0 100.193)" fill="#741763"/>
      <rect id="Rectangle_72" data-name="Rectangle 72" width="2.762" height="2.762" transform="translate(0 116.887)" fill="#741763"/>
      <rect id="Rectangle_73" data-name="Rectangle 73" width="2.762" height="2.762" transform="translate(0 133.581)" fill="#741763"/>
      <rect id="Rectangle_74" data-name="Rectangle 74" width="2.762" height="2.762" transform="translate(0 150.289)" fill="#741763"/>
      <rect id="Rectangle_75" data-name="Rectangle 75" width="2.762" height="2.762" transform="translate(0 166.983)" fill="#741763"/>
      <rect id="Rectangle_76" data-name="Rectangle 76" width="2.762" height="2.762" transform="translate(15.12)" fill="#741763"/>
      <rect id="Rectangle_77" data-name="Rectangle 77" width="2.762" height="2.762" transform="translate(15.12 16.694)" fill="#741763"/>
      <rect id="Rectangle_78" data-name="Rectangle 78" width="2.762" height="2.762" transform="translate(15.12 33.402)" fill="#741763"/>
      <rect id="Rectangle_79" data-name="Rectangle 79" width="2.762" height="2.762" transform="translate(15.12 50.096)" fill="#741763"/>
      <rect id="Rectangle_80" data-name="Rectangle 80" width="2.762" height="2.762" transform="translate(15.12 66.791)" fill="#741763"/>
      <rect id="Rectangle_81" data-name="Rectangle 81" width="2.762" height="2.762" transform="translate(15.12 83.485)" fill="#741763"/>
      <rect id="Rectangle_82" data-name="Rectangle 82" width="2.762" height="2.762" transform="translate(15.12 100.193)" fill="#741763"/>
      <rect id="Rectangle_83" data-name="Rectangle 83" width="2.762" height="2.762" transform="translate(15.12 116.887)" fill="#741763"/>
      <rect id="Rectangle_84" data-name="Rectangle 84" width="2.762" height="2.762" transform="translate(15.12 133.581)" fill="#741763"/>
      <rect id="Rectangle_85" data-name="Rectangle 85" width="2.762" height="2.762" transform="translate(15.12 150.289)" fill="#741763"/>
      <rect id="Rectangle_86" data-name="Rectangle 86" width="2.762" height="2.762" transform="translate(15.12 166.983)" fill="#741763"/>
      <rect id="Rectangle_87" data-name="Rectangle 87" width="2.762" height="2.762" transform="translate(30.239)" fill="#741763"/>
      <rect id="Rectangle_88" data-name="Rectangle 88" width="2.762" height="2.762" transform="translate(30.239 16.694)" fill="#741763"/>
      <rect id="Rectangle_89" data-name="Rectangle 89" width="2.762" height="2.762" transform="translate(30.239 33.402)" fill="#741763"/>
      <rect id="Rectangle_90" data-name="Rectangle 90" width="2.762" height="2.762" transform="translate(30.239 50.096)" fill="#741763"/>
      <rect id="Rectangle_91" data-name="Rectangle 91" width="2.762" height="2.762" transform="translate(30.239 66.791)" fill="#741763"/>
      <rect id="Rectangle_92" data-name="Rectangle 92" width="2.762" height="2.762" transform="translate(30.239 83.485)" fill="#741763"/>
      <rect id="Rectangle_93" data-name="Rectangle 93" width="2.762" height="2.762" transform="translate(30.239 100.193)" fill="#741763"/>
      <rect id="Rectangle_94" data-name="Rectangle 94" width="2.762" height="2.762" transform="translate(30.239 116.887)" fill="#741763"/>
      <rect id="Rectangle_95" data-name="Rectangle 95" width="2.762" height="2.762" transform="translate(30.239 133.581)" fill="#741763"/>
      <rect id="Rectangle_96" data-name="Rectangle 96" width="2.762" height="2.762" transform="translate(30.239 150.289)" fill="#741763"/>
      <rect id="Rectangle_97" data-name="Rectangle 97" width="2.762" height="2.762" transform="translate(30.239 166.983)" fill="#741763"/>
      <rect id="Rectangle_98" data-name="Rectangle 98" width="2.762" height="2.762" transform="translate(45.359)" fill="#741763"/>
      <rect id="Rectangle_99" data-name="Rectangle 99" width="2.762" height="2.762" transform="translate(45.359 16.694)" fill="#741763"/>
      <rect id="Rectangle_100" data-name="Rectangle 100" width="2.762" height="2.762" transform="translate(45.359 33.402)" fill="#741763"/>
      <rect id="Rectangle_101" data-name="Rectangle 101" width="2.762" height="2.762" transform="translate(45.359 50.096)" fill="#741763"/>
      <rect id="Rectangle_102" data-name="Rectangle 102" width="2.762" height="2.762" transform="translate(45.359 66.791)" fill="#741763"/>
      <rect id="Rectangle_103" data-name="Rectangle 103" width="2.762" height="2.762" transform="translate(45.359 83.485)" fill="#741763"/>
      <rect id="Rectangle_104" data-name="Rectangle 104" width="2.762" height="2.762" transform="translate(45.359 100.193)" fill="#741763"/>
      <rect id="Rectangle_105" data-name="Rectangle 105" width="2.762" height="2.762" transform="translate(45.359 116.887)" fill="#741763"/>
      <rect id="Rectangle_106" data-name="Rectangle 106" width="2.762" height="2.762" transform="translate(45.359 133.581)" fill="#741763"/>
      <rect id="Rectangle_107" data-name="Rectangle 107" width="2.762" height="2.762" transform="translate(45.359 150.289)" fill="#741763"/>
      <rect id="Rectangle_108" data-name="Rectangle 108" width="2.762" height="2.762" transform="translate(45.359 166.983)" fill="#741763"/>
      <rect id="Rectangle_109" data-name="Rectangle 109" width="2.762" height="2.762" transform="translate(60.479)" fill="#741763"/>
      <rect id="Rectangle_110" data-name="Rectangle 110" width="2.762" height="2.762" transform="translate(60.479 16.694)" fill="#741763"/>
      <rect id="Rectangle_111" data-name="Rectangle 111" width="2.762" height="2.762" transform="translate(60.479 33.402)" fill="#741763"/>
      <rect id="Rectangle_112" data-name="Rectangle 112" width="2.762" height="2.762" transform="translate(60.479 50.096)" fill="#741763"/>
      <rect id="Rectangle_113" data-name="Rectangle 113" width="2.762" height="2.762" transform="translate(60.479 66.791)" fill="#741763"/>
      <rect id="Rectangle_114" data-name="Rectangle 114" width="2.762" height="2.762" transform="translate(60.479 83.485)" fill="#741763"/>
      <rect id="Rectangle_115" data-name="Rectangle 115" width="2.762" height="2.762" transform="translate(60.479 100.193)" fill="#741763"/>
      <rect id="Rectangle_116" data-name="Rectangle 116" width="2.762" height="2.762" transform="translate(60.479 116.887)" fill="#741763"/>
      <rect id="Rectangle_117" data-name="Rectangle 117" width="2.762" height="2.762" transform="translate(60.479 133.581)" fill="#741763"/>
      <rect id="Rectangle_118" data-name="Rectangle 118" width="2.762" height="2.762" transform="translate(60.479 150.289)" fill="#741763"/>
      <rect id="Rectangle_119" data-name="Rectangle 119" width="2.762" height="2.762" transform="translate(60.479 166.983)" fill="#741763"/>
      <rect id="Rectangle_120" data-name="Rectangle 120" width="2.762" height="2.762" transform="translate(75.598)" fill="#741763"/>
      <rect id="Rectangle_121" data-name="Rectangle 121" width="2.762" height="2.762" transform="translate(75.598 16.694)" fill="#741763"/>
      <rect id="Rectangle_122" data-name="Rectangle 122" width="2.762" height="2.762" transform="translate(75.598 33.402)" fill="#741763"/>
      <rect id="Rectangle_123" data-name="Rectangle 123" width="2.762" height="2.762" transform="translate(75.598 50.096)" fill="#741763"/>
      <rect id="Rectangle_124" data-name="Rectangle 124" width="2.762" height="2.762" transform="translate(75.598 66.791)" fill="#741763"/>
      <rect id="Rectangle_125" data-name="Rectangle 125" width="2.762" height="2.762" transform="translate(75.598 83.485)" fill="#741763"/>
      <rect id="Rectangle_126" data-name="Rectangle 126" width="2.762" height="2.762" transform="translate(75.598 100.193)" fill="#741763"/>
      <rect id="Rectangle_127" data-name="Rectangle 127" width="2.762" height="2.762" transform="translate(75.598 116.887)" fill="#741763"/>
      <rect id="Rectangle_128" data-name="Rectangle 128" width="2.762" height="2.762" transform="translate(75.598 133.581)" fill="#741763"/>
      <rect id="Rectangle_129" data-name="Rectangle 129" width="2.762" height="2.762" transform="translate(75.598 150.289)" fill="#741763"/>
      <rect id="Rectangle_130" data-name="Rectangle 130" width="2.762" height="2.762" transform="translate(75.598 166.983)" fill="#741763"/>
      <rect id="Rectangle_131" data-name="Rectangle 131" width="2.762" height="2.762" transform="translate(90.718)" fill="#741763"/>
      <rect id="Rectangle_132" data-name="Rectangle 132" width="2.762" height="2.762" transform="translate(90.718 16.694)" fill="#741763"/>
      <rect id="Rectangle_133" data-name="Rectangle 133" width="2.762" height="2.762" transform="translate(90.718 33.402)" fill="#741763"/>
      <rect id="Rectangle_134" data-name="Rectangle 134" width="2.762" height="2.762" transform="translate(90.718 50.096)" fill="#741763"/>
      <rect id="Rectangle_135" data-name="Rectangle 135" width="2.762" height="2.762" transform="translate(90.718 66.791)" fill="#741763"/>
      <rect id="Rectangle_136" data-name="Rectangle 136" width="2.762" height="2.762" transform="translate(90.718 83.485)" fill="#741763"/>
      <rect id="Rectangle_137" data-name="Rectangle 137" width="2.762" height="2.762" transform="translate(90.718 100.193)" fill="#741763"/>
      <rect id="Rectangle_138" data-name="Rectangle 138" width="2.762" height="2.762" transform="translate(90.718 116.887)" fill="#741763"/>
      <rect id="Rectangle_139" data-name="Rectangle 139" width="2.762" height="2.762" transform="translate(90.718 133.581)" fill="#741763"/>
      <rect id="Rectangle_140" data-name="Rectangle 140" width="2.762" height="2.762" transform="translate(90.718 150.289)" fill="#741763"/>
      <rect id="Rectangle_141" data-name="Rectangle 141" width="2.762" height="2.762" transform="translate(90.718 166.983)" fill="#741763"/>
      <rect id="Rectangle_142" data-name="Rectangle 142" width="2.762" height="2.762" transform="translate(105.838)" fill="#741763"/>
      <rect id="Rectangle_143" data-name="Rectangle 143" width="2.762" height="2.762" transform="translate(105.838 16.694)" fill="#741763"/>
      <rect id="Rectangle_144" data-name="Rectangle 144" width="2.762" height="2.762" transform="translate(105.838 33.402)" fill="#741763"/>
      <rect id="Rectangle_145" data-name="Rectangle 145" width="2.762" height="2.762" transform="translate(105.838 50.096)" fill="#741763"/>
      <rect id="Rectangle_146" data-name="Rectangle 146" width="2.762" height="2.762" transform="translate(105.838 66.791)" fill="#741763"/>
      <rect id="Rectangle_147" data-name="Rectangle 147" width="2.762" height="2.762" transform="translate(105.838 83.485)" fill="#741763"/>
      <rect id="Rectangle_148" data-name="Rectangle 148" width="2.762" height="2.762" transform="translate(105.838 100.193)" fill="#741763"/>
      <rect id="Rectangle_149" data-name="Rectangle 149" width="2.762" height="2.762" transform="translate(105.838 116.887)" fill="#741763"/>
      <rect id="Rectangle_150" data-name="Rectangle 150" width="2.762" height="2.762" transform="translate(105.838 133.581)" fill="#741763"/>
      <rect id="Rectangle_151" data-name="Rectangle 151" width="2.762" height="2.762" transform="translate(105.838 150.289)" fill="#741763"/>
      <rect id="Rectangle_152" data-name="Rectangle 152" width="2.762" height="2.762" transform="translate(105.838 166.983)" fill="#741763"/>
      <rect id="Rectangle_153" data-name="Rectangle 153" width="2.762" height="2.762" transform="translate(120.944)" fill="#741763"/>
      <rect id="Rectangle_154" data-name="Rectangle 154" width="2.762" height="2.762" transform="translate(120.944 16.694)" fill="#741763"/>
      <rect id="Rectangle_155" data-name="Rectangle 155" width="2.762" height="2.762" transform="translate(120.944 33.402)" fill="#741763"/>
      <rect id="Rectangle_156" data-name="Rectangle 156" width="2.762" height="2.762" transform="translate(120.944 50.096)" fill="#741763"/>
      <rect id="Rectangle_157" data-name="Rectangle 157" width="2.762" height="2.762" transform="translate(120.944 66.791)" fill="#741763"/>
      <rect id="Rectangle_158" data-name="Rectangle 158" width="2.762" height="2.762" transform="translate(120.944 83.485)" fill="#741763"/>
      <rect id="Rectangle_159" data-name="Rectangle 159" width="2.762" height="2.762" transform="translate(120.944 100.193)" fill="#741763"/>
      <rect id="Rectangle_160" data-name="Rectangle 160" width="2.762" height="2.762" transform="translate(120.944 116.887)" fill="#741763"/>
      <rect id="Rectangle_161" data-name="Rectangle 161" width="2.762" height="2.762" transform="translate(120.944 133.581)" fill="#741763"/>
      <rect id="Rectangle_162" data-name="Rectangle 162" width="2.762" height="2.762" transform="translate(120.944 150.289)" fill="#741763"/>
      <rect id="Rectangle_163" data-name="Rectangle 163" width="2.762" height="2.762" transform="translate(120.944 166.983)" fill="#741763"/>
      <rect id="Rectangle_164" data-name="Rectangle 164" width="2.762" height="2.762" transform="translate(136.064)" fill="#741763"/>
      <rect id="Rectangle_165" data-name="Rectangle 165" width="2.762" height="2.762" transform="translate(136.064 16.694)" fill="#741763"/>
      <rect id="Rectangle_166" data-name="Rectangle 166" width="2.762" height="2.762" transform="translate(136.064 33.402)" fill="#741763"/>
      <rect id="Rectangle_167" data-name="Rectangle 167" width="2.762" height="2.762" transform="translate(136.064 50.096)" fill="#741763"/>
      <rect id="Rectangle_168" data-name="Rectangle 168" width="2.762" height="2.762" transform="translate(136.064 66.791)" fill="#741763"/>
      <rect id="Rectangle_169" data-name="Rectangle 169" width="2.762" height="2.762" transform="translate(136.064 83.485)" fill="#741763"/>
      <rect id="Rectangle_170" data-name="Rectangle 170" width="2.762" height="2.762" transform="translate(136.064 100.193)" fill="#741763"/>
      <rect id="Rectangle_171" data-name="Rectangle 171" width="2.762" height="2.762" transform="translate(136.064 116.887)" fill="#741763"/>
      <rect id="Rectangle_172" data-name="Rectangle 172" width="2.762" height="2.762" transform="translate(136.064 133.581)" fill="#741763"/>
      <rect id="Rectangle_173" data-name="Rectangle 173" width="2.762" height="2.762" transform="translate(136.064 150.289)" fill="#741763"/>
      <rect id="Rectangle_174" data-name="Rectangle 174" width="2.762" height="2.762" transform="translate(136.064 166.983)" fill="#741763"/>
      <rect id="Rectangle_175" data-name="Rectangle 175" width="2.762" height="2.762" transform="translate(151.183)" fill="#741763"/>
      <rect id="Rectangle_176" data-name="Rectangle 176" width="2.762" height="2.762" transform="translate(151.183 16.694)" fill="#741763"/>
      <rect id="Rectangle_177" data-name="Rectangle 177" width="2.762" height="2.762" transform="translate(151.183 33.402)" fill="#741763"/>
      <rect id="Rectangle_178" data-name="Rectangle 178" width="2.762" height="2.762" transform="translate(151.183 50.096)" fill="#741763"/>
      <rect id="Rectangle_179" data-name="Rectangle 179" width="2.762" height="2.762" transform="translate(151.183 66.791)" fill="#741763"/>
      <rect id="Rectangle_180" data-name="Rectangle 180" width="2.762" height="2.762" transform="translate(151.183 83.485)" fill="#741763"/>
      <rect id="Rectangle_181" data-name="Rectangle 181" width="2.762" height="2.762" transform="translate(151.183 100.193)" fill="#741763"/>
      <rect id="Rectangle_182" data-name="Rectangle 182" width="2.762" height="2.762" transform="translate(151.183 116.887)" fill="#741763"/>
      <rect id="Rectangle_183" data-name="Rectangle 183" width="2.762" height="2.762" transform="translate(151.183 133.581)" fill="#741763"/>
      <rect id="Rectangle_184" data-name="Rectangle 184" width="2.762" height="2.762" transform="translate(151.183 150.289)" fill="#741763"/>
      <rect id="Rectangle_185" data-name="Rectangle 185" width="2.762" height="2.762" transform="translate(151.183 166.983)" fill="#741763"/>
    </g>
  </g>
</svg>
