<svg xmlns="http://www.w3.org/2000/svg" width="79.335" height="79.335" viewBox="0 0 79.335 79.335">
  <path id="target_1_" data-name="target (1)" d="M41.032,2.73A38.254,38.254,0,0,0,23.447,7.013L17.116.681a2.327,2.327,0,0,0-3.826.833l-3.2,8.578-8.578,3.2a2.327,2.327,0,0,0-.833,3.826l6.331,6.331A38.3,38.3,0,1,0,41.032,2.73Zm0,50.908A12.606,12.606,0,1,0,33.922,30.63L28.07,24.778a20.823,20.823,0,1,1-3.291,3.291l5.852,5.852a12.6,12.6,0,0,0,10.4,19.716Zm1.646-14.252L37.3,34.012A7.958,7.958,0,1,1,34.012,37.3l5.374,5.374a2.327,2.327,0,0,0,3.291-3.291ZM16.386,6.534l7.831,7.832-1.007,5.554L14.6,11.313ZM6.534,16.386,11.314,14.6,19.92,23.21l-5.554,1.007Zm34.5,58.294A33.637,33.637,0,0,1,10.491,26.925l1.445,1.445A2.328,2.328,0,0,0,14,29.015l5.129-.93a25.474,25.474,0,1,0,8.96-8.96L29.015,14a2.328,2.328,0,0,0-.644-2.061l-1.445-1.445A33.645,33.645,0,1,1,41.032,74.68Z" transform="translate(0 0)" fill="#741763"/>
</svg>
